PathFileType	4	(X/Y/Z)	2_1_7_p0_0-241.trc
DataRate	CameraRate	NumFrames	NumMarkers	Units	OrigDataRate	OrigDataStartFrame	OrigNumFrames
59.0	59.0	5	27	m	59.0	121	242
Frame#	Time	RHip			RKnee			RAnkle			RBigToe			RSmallToe			RHeel			LHip			LKnee			LAnkle			LBigToe			LSmallToe			LHeel			Neck			Head			Nose			RShoulder			RElbow			RWrist			RThumb			RIndex			RPinky			LShoulder			LElbow			LWrist			LThumb			LIndex			LPinky			
		X1	Y1	Z1	X2	Y2	Z2	X3	Y3	Z3	X4	Y4	Z4	X5	Y5	Z5	X6	Y6	Z6	X7	Y7	Z7	X8	Y8	Z8	X9	Y9	Z9	X10	Y10	Z10	X11	Y11	Z11	X12	Y12	Z12	X13	Y13	Z13	X14	Y14	Z14	X15	Y15	Z15	X16	Y16	Z16	X17	Y17	Z17	X18	Y18	Z18	X19	Y19	Z19	X20	Y20	Z20	X21	Y21	Z21	X22	Y22	Z22	X23	Y23	Z23	X24	Y24	Z24	X25	Y25	Z25	X26	Y26	Z26	X27	Y27	Z27	
121	2.0508474576271185	0.341036732745509	0.5467445460934971	0.9857343973608417	0.33399433430992653	0.6782292330922521	1.4181054279820386	0.2978664634440927	0.8837957176235294	1.8120512197977447	0.3021338508345515	0.6703145573761012	1.8826505087571703	0.35463419012783604	0.7520062248785391	1.8954398857557138	0.2788664765486957	0.9245354639378565	1.8513709168380421	0.14234019863241956	0.5668485370298644	0.9858453089714297	0.13197194297285297	0.6986941239668955	1.4209893240746196	0.11341594311921253	0.8194040584996924	1.8020083988520492	0.12220020626796367	0.7496372022094261	1.932709139211941	0.08075831709640617	0.7166860568910737	1.8824440562892133	0.1254196974149931	0.8992012109993911	1.8586537445275664	0.2455099553762276	0.44236240973865354	0.40617837533048434	0.2589531810347247	0.2851916138082601	0.17690989179847055	0.2511738131318289	0.27641416814399833	0.3383411960270882	0.4056344155060414	0.42956500558447736	0.44396208838938883	0.46882763567893215	0.5576499642917233	0.7008706331482629	0.4252324041729765	0.4858432560820983	0.9506806914327858	0.3430980808277353	0.39472508613506374	1.0419630716892243	0.34636833615014134	0.4191573901245139	1.089394114550014	0.3557905991404126	0.5135598520047352	1.0915868239127644	0.08374732863912542	0.38333284778652327	0.45604505142360735	0.04196283560582621	0.5102773937288384	0.7296900743310335	0.16303189487961034	0.41324507149954276	0.9643616418184807	0.2614188602566853	0.4273201685249426	1.0216504864135636	0.2618691252449714	0.43973670258180597	1.0812200912194996	0.21190945870354713	0.44069072643007323	1.1035436040176467
122	2.0677966101694913	0.34140069533805106	0.5463846203143818	0.9897041774040691	0.33470244578632785	0.6770509986110054	1.421486513327834	0.2978671690855518	0.8837614804744924	1.8121084353958616	0.2995920618652636	0.6559596451389391	1.8785666116639816	0.3545980162655058	0.7518503595400681	1.895451459679287	0.27888434722891736	0.9245770465152876	1.8515160964709005	0.14318845876206387	0.5651344595049558	0.9867902412839156	0.13223066168310063	0.6985208948766856	1.4211059907015386	0.11524261836056193	0.8350847302288759	1.8060107878964067	0.12215985698204163	0.7495966158345163	1.932664397399115	0.08082827932113422	0.716660080112506	1.8823544897795383	0.12490086253383306	0.9002248782711777	1.854822801526496	0.24553399114171615	0.4422933548030093	0.40622245514606437	0.25901220627625976	0.28510169189227846	0.17691896945357347	0.251164752107396	0.27632219078430703	0.3384048612483286	0.4100229359520762	0.4166458219897851	0.445608652745524	0.4726113112976444	0.5590559287622291	0.6970699787185376	0.4263163596340223	0.48746743792062897	0.9582053362174036	0.35300584610135394	0.38654200910306824	1.0485007529929542	0.3583165274584375	0.42104499132697376	1.0960937023680388	0.3646903552542187	0.5010118834519972	1.086413050756482	0.08372744708604224	0.3834075242113176	0.45598458013561727	0.04256499472561518	0.510030389380992	0.7339136251476586	0.16305015849101956	0.41298985495621265	0.9679452610235864	0.25845752732404853	0.4152596589309073	1.0281865361349014	0.2587975219953628	0.4278515000873544	1.080798162481841	0.21074015358041678	0.43889305410133567	1.0957991002695469
123	2.0847457627118646	0.3414002227513652	0.5464417957958061	0.9898925306649404	0.3341485741155967	0.6782057342855642	1.4178302908293596	0.29790829015573134	0.8838167801092462	1.8120691539880251	0.3021695086566511	0.6702205050872931	1.8826399169984414	0.3546877397631695	0.751909381343386	1.8954145488287097	0.27890450660090793	0.9245992440312	1.8514764036500144	0.14186486756342503	0.5541487990567467	0.9904175351663809	0.1321100791150786	0.6985762220703776	1.4210113428858457	0.11351020923057215	0.8195427157649917	1.8020049489723167	0.12216412996314777	0.749734128181864	1.9327375336144557	0.08082916678524724	0.7167995909634032	1.882411611338161	0.12492054361688966	0.9002810635716781	1.8548109847359056	0.2433601878865886	0.4298827276094807	0.40834760633424133	0.2589564294209278	0.28473305641991814	0.17705373627219392	0.2510884009999184	0.27611784290639396	0.33836372524237757	0.4100457094769123	0.41652027018413934	0.44559475817769467	0.4726569076287691	0.5591043361602911	0.6971020260385882	0.42634027991823115	0.4876649932858159	0.9584128639699535	0.3561715840769382	0.4017521780132406	1.05624110013255	0.35890097046257496	0.4213101698472782	1.0963556322838213	0.3679629785573348	0.5026603793247733	1.0899491174519182	0.08371514513439889	0.38344419142046016	0.4560626290409861	0.04238015429401126	0.5100418451148399	0.733748969080439	0.16279706912889955	0.4127771369394335	0.9678929889491917	0.2560196018699517	0.40283644390931506	1.0279939244559988	0.2549999544635557	0.4139314190033395	1.0738277789413586	0.20291886595854514	0.4417797496160136	1.100133743872817
124	2.1016949152542375	0.34148677648641595	0.5463794278361372	0.9896541883578002	0.3354749070983688	0.6755860230218987	1.41738388058997	0.29791009015030134	0.8839070008344346	1.8120535618883218	0.29964068539219124	0.6560320170991841	1.878585530174274	0.354689956389314	0.7518608969033352	1.8953747899022761	0.2788887407905151	0.924816360747801	1.8514863736570202	0.14378806350583354	0.5684044513278855	0.9904547949662938	0.13321199341189013	0.6966045135193321	1.4166634945430492	0.11352819171490287	0.8196594827026069	1.8019624389861	0.1266714111893875	0.7190186554284547	1.922627048245412	0.08085071375056177	0.7165409755030003	1.8823223134798353	0.1289127894328475	0.9031227335905908	1.855255892880991	0.24330172740061204	0.42987850364429137	0.40837064356475244	0.25895301130038406	0.284779970750169	0.17709854705783412	0.2509996851321176	0.27671783393621235	0.3416699518476549	0.4100434436351586	0.416465197413797	0.4455961807497313	0.4725869654878563	0.5590034811386263	0.6969895052418862	0.4266163244243764	0.4875396889656535	0.9583383663500128	0.36206010527966337	0.4276208814156015	1.0610429175057063	0.37158670814178607	0.45933157871901237	1.0983455269965046	0.38534686826175146	0.48923957353755493	1.0911618554357656	0.0837241585588241	0.38332015383283224	0.4561074388277723	0.0437441937779116	0.5230341955339038	0.7292171282941822	0.15829876489728417	0.4128064953602309	0.9720795983916084	0.25435026988411896	0.4174604533404127	1.0358972504556796	0.25252854869019337	0.41623232433411755	1.0812140092933449	0.19353788250323642	0.45434382306040033	1.1097584999444539
125	2.1186440677966103	0.3412852916268574	0.549303361146852	0.9855363632480225	0.3348818550720249	0.6763422547247416	1.413455906337472	0.29789580440621716	0.883880226641289	1.8121030232795012	0.29955329653428686	0.6560238535863017	1.8785926654668572	0.354574285642432	0.7519424265120535	1.8954750821049742	0.2789015223655571	0.9247716839245074	1.8515094684638291	0.1439884684118651	0.5692317783418235	0.9901036718150763	0.13263747445648036	0.6970040491332549	1.412128986497191	0.11354191486238252	0.8194639903424533	1.8020023372533847	0.12845130394642193	0.7339894164163663	1.927179300751765	0.08081713505971198	0.7167293028772235	1.8824774607311028	0.12776171949893028	0.904822361994996	1.8605520667029214	0.24336317853995015	0.4298131516729307	0.4084606793362925	0.2563466976984828	0.2732609813623004	0.17680270467706732	0.2510386261629102	0.2766736207600902	0.34178973829229675	0.4099704188116019	0.41640442977810466	0.445646526090084	0.4685291643000067	0.5578890631525826	0.6971791139995441	0.42943033194844515	0.4992271215588722	0.9508434620078354	0.3647989315054568	0.4398609539751892	1.0618825541576333	0.3765319323590934	0.4471689751849215	1.0969054576037822	0.39287720646810814	0.4918272760466216	1.0910426058126397	0.08374045226591025	0.38332339421952943	0.45616127861972705	0.04224155462530167	0.5095270743456621	0.7299790020948115	0.15237966259463612	0.42532634628802424	0.9730531302667492	0.24414199177153278	0.4035182987185787	1.0397115147540736	0.24826052602142604	0.39389494735432606	1.0899605409234727	0.19174561488224856	0.44398849347470176	1.110505937428692
